<?xml version="1.0" standalone="no"?>
<!DOCTYPE svg PUBLIC "-//W3C//DTD SVG 20010904//EN"
 "http://www.w3.org/TR/2001/REC-SVG-20010904/DTD/svg10.dtd">
<svg version="1.0" xmlns="http://www.w3.org/2000/svg"
 width="260.000000pt" height="260.000000pt" viewBox="0 0 260.000000 260.000000"
 preserveAspectRatio="xMidYMid meet">
<metadata>
Created by potrace 1.14, written by Peter Selinger 2001-2017
</metadata>
<g transform="translate(0.000000,260.000000) scale(0.100000,-0.100000)"
fill="#000000" stroke="none">
<path d="M1205 2350 c3 -5 1 -11 -5 -15 -5 -3 -10 -1 -10 6 0 7 -3 10 -6 7 -3
-4 -5 -8 -3 -10 8 -10 -25 -48 -42 -48 -11 0 -18 -4 -14 -9 3 -5 1 -12 -5 -16
-6 -4 -7 -12 -3 -18 4 -7 -2 -5 -12 3 -10 8 -16 10 -12 3 5 -7 -1 -16 -13 -23
-11 -6 -20 -17 -20 -26 0 -9 -7 -14 -17 -12 -10 2 -17 -3 -15 -10 1 -7 -5 -15
-13 -18 -11 -4 -12 -10 -6 -18 7 -8 4 -12 -9 -12 -10 0 -16 5 -13 10 4 5 1 6
-6 2 -7 -5 -10 -15 -7 -23 5 -11 2 -13 -10 -9 -14 5 -15 4 -5 -8 7 -8 10 -19
7 -25 -3 -5 0 -12 6 -14 7 -3 4 -6 -6 -6 -18 -1 -18 -2 -3 -13 15 -12 15 -16
2 -41 -8 -15 -10 -25 -5 -22 6 4 10 3 11 -2 4 -44 3 -61 -3 -57 -15 10 -8 -5
16 -30 13 -15 30 -26 37 -26 11 0 11 -2 -1 -10 -8 -5 -10 -10 -4 -10 6 0 28
-15 49 -34 21 -19 43 -32 48 -29 6 3 7 1 3 -6 -4 -6 3 -24 15 -39 16 -20 20
-22 15 -7 -6 18 -6 19 9 4 8 -8 17 -24 19 -36 4 -16 0 -20 -15 -16 -12 3 -19
0 -19 -8 0 -11 -2 -11 -10 1 -9 13 -10 13 -10 0 0 -13 -1 -13 -11 0 -8 11 -12
12 -16 2 -2 -6 -9 -10 -14 -6 -5 3 -9 -4 -9 -14 0 -21 -25 -36 -42 -25 -7 3
-8 1 -4 -5 4 -7 2 -20 -3 -29 -6 -10 -11 -13 -11 -8 0 6 -5 3 -10 -5 -5 -8
-15 -15 -22 -15 -7 0 -12 -8 -10 -18 2 -9 -2 -17 -8 -17 -6 0 -8 -6 -4 -12 6
-10 4 -10 -8 0 -13 10 -18 10 -24 1 -5 -8 -3 -10 7 -5 8 4 6 1 -5 -8 -11 -9
-16 -22 -12 -31 4 -12 2 -14 -13 -6 -22 12 -31 5 -31 -26 0 -14 -5 -34 -12
-46 -11 -21 -10 -21 8 -7 19 14 19 14 1 -7 -11 -12 -25 -19 -33 -16 -9 3 -12
-2 -9 -17 3 -18 2 -20 -10 -10 -11 9 -12 7 -8 -12 4 -13 11 -26 17 -30 8 -5 7
-8 -1 -8 -13 0 -13 -34 0 -46 10 -11 8 -24 -4 -24 -5 0 -7 5 -3 12 4 7 3 8 -5
4 -6 -4 -8 -13 -4 -19 10 -17 11 -47 1 -47 -5 0 -7 -4 -4 -9 4 -5 -2 -7 -12
-4 -10 2 -25 -3 -33 -13 -9 -11 -9 -15 -1 -10 7 4 12 1 12 -8 0 -9 -6 -16 -12
-16 -10 0 -9 -3 1 -9 10 -7 11 -13 1 -31 -7 -14 -8 -20 -1 -16 7 4 9 -10 8
-41 -2 -38 -6 -48 -20 -47 -9 1 -17 -5 -17 -13 0 -8 -6 -13 -13 -10 -12 5 -15
-23 -6 -63 3 -10 -3 -15 -18 -14 -12 0 -20 -3 -17 -8 3 -4 1 -8 -5 -8 -6 0 -8
-6 -5 -14 3 -9 -3 -17 -15 -21 -13 -4 -18 -11 -14 -18 4 -7 -1 -6 -11 2 -9 8
-16 10 -15 5 4 -25 -2 -45 -13 -38 -7 5 -9 2 -5 -8 4 -12 1 -14 -14 -11 -11 3
-16 10 -12 17 4 6 -6 3 -21 -8 -16 -10 -25 -13 -21 -6 5 7 1 11 -11 10 -40 -5
-56 0 -51 14 7 18 -28 52 -38 36 -5 -8 -11 -7 -23 2 -12 10 -14 10 -8 1 4 -8
1 -13 -9 -13 -10 0 -13 5 -9 12 5 7 3 8 -7 2 -8 -5 -25 -10 -39 -11 -20 -3
-22 -1 -10 7 8 5 10 10 4 10 -5 0 -15 -5 -22 -12 -7 -7 -12 -9 -12 -5 0 4 -10
2 -23 -4 -20 -11 -21 -11 -8 4 17 21 12 21 -28 1 -17 -8 -29 -20 -26 -25 4 -5
-1 -9 -10 -9 -9 0 -14 -4 -11 -9 3 -5 -1 -12 -10 -15 -24 -9 -31 -7 -14 4 11
7 6 9 -20 7 -23 -2 -35 -8 -35 -17 -1 -24 -15 -41 -33 -38 -11 2 -16 -3 -14
-13 1 -9 -6 -23 -15 -30 -16 -12 -17 -12 -8 1 6 9 3 8 -7 -2 -12 -13 -18 -15
-21 -6 -3 7 -6 -9 -6 -37 0 -27 4 -57 9 -65 7 -11 10 -12 10 -2 0 19 31 -13
35 -36 1 -10 9 -16 19 -14 9 2 16 -3 16 -10 0 -9 3 -9 11 2 9 13 10 12 5 -2
-3 -10 -3 -25 1 -34 5 -13 7 -13 14 -2 7 10 9 11 9 0 0 -7 4 -11 9 -7 5 3 13
0 17 -6 4 -8 3 -9 -4 -5 -19 12 -14 -8 7 -26 14 -12 22 -13 31 -5 8 9 10 8 5
-5 -4 -11 -2 -18 4 -18 6 0 11 -5 11 -11 0 -5 -6 -7 -12 -3 -10 5 -10 4 -1 -6
16 -17 46 -23 36 -7 -3 6 4 3 17 -6 17 -12 27 -13 36 -6 9 7 16 4 24 -12 8
-14 8 -19 1 -15 -6 4 -9 1 -5 -7 3 -8 13 -13 24 -10 10 3 21 0 25 -7 5 -8 13
-6 26 6 18 16 19 16 13 1 -4 -10 -1 -17 6 -17 7 0 10 -7 7 -14 -4 -11 -1 -13
11 -9 15 6 16 5 2 -13 -14 -18 -13 -18 9 1 14 11 21 15 18 9 -4 -7 3 -14 18
-16 13 -3 22 -1 19 3 -8 13 10 11 25 -4 9 -7 11 -7 8 -1 -9 15 20 27 29 12 5
-7 2 -8 -6 -3 -9 5 -11 4 -6 -4 4 -6 13 -8 19 -4 15 10 57 11 51 2 -2 -4 2
-14 10 -22 8 -8 12 -18 8 -22 -4 -5 -1 -5 7 0 8 4 17 2 22 -6 7 -12 9 -12 9 0
0 9 4 10 13 5 15 -11 38 -11 55 -1 7 5 12 3 12 -5 0 -9 3 -9 10 2 9 13 11 13
20 0 5 -8 10 -10 10 -5 0 6 11 11 25 11 16 1 22 -2 18 -10 -4 -6 1 -5 10 3 14
11 17 11 17 0 0 -9 3 -10 8 -4 11 15 55 18 46 2 -5 -8 -2 -8 9 2 14 11 17 11
17 0 0 -11 2 -11 10 1 5 8 10 11 10 6 0 -5 7 -3 15 4 13 11 14 10 8 -6 -6 -16
-5 -17 9 -6 12 9 18 10 23 2 5 -8 10 -8 20 0 10 8 14 7 18 -2 4 -10 6 -10 6 1
1 10 4 11 15 2 10 -8 16 -9 21 -1 9 15 28 13 19 -2 -4 -7 3 -4 15 6 22 20 22
20 15 0 -7 -17 -6 -17 9 -5 14 11 17 11 17 0 0 -12 2 -12 9 0 6 9 10 10 16 2
5 -9 10 -9 21 0 11 9 14 8 14 -2 0 -12 2 -12 9 0 6 9 11 10 15 2 5 -7 15 -7
32 -1 33 13 37 13 28 -2 -5 -9 -2 -9 9 1 14 11 17 11 17 0 0 -9 3 -10 8 -4 11
15 55 18 46 2 -5 -8 -2 -8 9 2 14 11 17 11 17 0 0 -9 3 -10 8 -4 9 12 32 13
51 1 10 -6 12 -5 7 2 -4 7 -2 12 3 12 6 0 11 -6 11 -12 0 -10 3 -9 9 1 5 7 11
9 14 4 7 -11 37 -11 55 1 7 4 12 2 12 -6 0 -9 3 -9 10 2 9 13 11 13 20 0 7
-11 10 -11 10 -2 0 8 5 10 13 5 16 -10 39 -10 55 1 8 5 12 4 12 -5 0 -11 2
-11 10 1 9 13 11 13 20 0 5 -8 10 -10 10 -5 0 6 11 11 25 11 16 1 22 -2 18
-10 -4 -6 1 -5 10 3 14 11 17 11 17 0 0 -9 3 -10 8 -4 11 15 55 18 46 2 -5 -8
-2 -8 9 2 14 11 17 11 17 0 0 -9 3 -10 8 -4 11 15 55 18 46 2 -6 -8 -3 -8 9 1
9 8 20 11 24 9 5 -3 10 4 10 15 1 12 7 26 14 32 9 8 10 7 4 -3 -5 -9 -4 -12 3
-7 16 10 93 15 87 6 -3 -5 7 -5 22 -1 16 4 38 6 50 5 12 -1 22 2 21 5 0 3 1 9
2 14 1 4 3 12 4 19 1 12 36 21 36 8 0 -4 17 -2 38 5 29 10 36 18 34 34 -3 16
1 19 14 14 13 -5 15 -3 9 8 -6 11 -5 12 6 2 7 -7 17 -13 22 -13 4 0 5 6 1 13
-6 8 -3 8 9 -1 17 -14 42 -7 32 9 -4 5 0 9 7 9 9 0 9 3 -2 10 -11 7 -11 10 -2
10 7 0 10 5 6 11 -4 8 -1 8 13 1 15 -9 22 -6 32 10 8 13 9 18 1 13 -7 -5 -7 0
1 14 8 11 16 16 19 11 8 -12 25 2 25 20 0 8 8 14 17 14 10 -1 16 2 13 6 -3 4
2 10 10 14 8 3 15 10 15 16 0 6 7 18 15 26 9 9 15 11 15 4 0 -6 5 -8 10 -5 11
7 14 98 3 108 -3 4 -13 1 -21 -6 -13 -9 -14 -9 -8 1 4 6 2 12 -3 12 -6 0 -11
8 -11 19 0 13 -10 20 -31 25 -17 3 -28 10 -24 16 3 5 1 18 -4 27 -6 10 -11 14
-11 10 0 -4 -10 -2 -22 4 -21 11 -22 11 -9 -4 13 -16 11 -16 -20 -3 -19 8 -34
21 -34 29 0 9 -4 19 -9 24 -5 5 -6 2 -2 -7 4 -9 1 -7 -7 3 -13 16 -15 16 -21
1 -5 -12 -9 -14 -20 -5 -7 6 -21 9 -30 5 -10 -4 -16 -1 -16 7 0 8 -6 5 -15 -7
-13 -16 -14 -16 -9 -1 5 13 2 16 -10 11 -9 -3 -13 -11 -9 -17 4 -6 1 -7 -8 -1
-8 5 -23 7 -34 6 -17 -2 -17 -1 -5 7 9 7 10 11 3 11 -6 0 -15 -5 -19 -11 -3
-6 -15 -9 -25 -6 -11 3 -17 1 -14 -3 8 -12 -6 -41 -16 -34 -5 3 -9 -3 -9 -13
0 -10 -3 -14 -8 -8 -10 15 -52 16 -52 2 0 -8 -4 -7 -9 2 -8 13 -12 13 -27 0
-15 -12 -17 -12 -9 0 6 11 4 13 -8 8 -9 -3 -16 -3 -16 1 4 22 -2 42 -11 37 -5
-3 -10 -1 -10 5 0 6 -4 8 -10 5 -5 -3 -10 1 -10 10 0 9 -4 14 -9 11 -5 -3 -12
1 -15 10 -3 8 -2 12 4 9 6 -3 10 -2 10 3 0 5 -9 12 -20 15 -11 3 -18 1 -14 -4
3 -5 0 -9 -7 -9 -7 0 -10 11 -7 30 3 17 1 33 -4 36 -5 3 -4 12 2 19 13 15 -3
29 -35 30 -15 0 -20 8 -22 33 -2 24 1 31 10 26 9 -6 9 -4 -1 8 -10 13 -10 17
0 21 11 4 11 6 0 6 -10 1 -10 6 -1 23 10 18 9 20 -7 14 -17 -6 -17 -6 -2 11
13 14 14 21 5 33 -17 21 -53 48 -43 33 4 -7 2 -13 -3 -13 -15 0 -14 13 2 29
10 11 9 12 -2 6 -11 -6 -13 -4 -8 8 3 9 2 19 -3 22 -13 8 0 36 14 28 6 -3 3 3
-7 14 -14 16 -15 23 -6 29 8 5 10 3 4 -6 -5 -9 -4 -11 3 -6 9 5 9 13 2 26 -13
25 -13 33 3 25 6 -4 4 0 -5 8 -14 11 -15 16 -5 27 10 10 8 10 -10 1 -22 -11
-27 -8 -24 12 1 5 -3 6 -8 3 -5 -4 -12 -2 -16 4 -3 5 -1 10 5 10 7 0 10 6 7
14 -3 7 0 19 6 26 9 10 8 12 -5 7 -12 -4 -16 -1 -13 14 2 10 0 19 -6 19 -5 0
-9 -6 -9 -12 0 -7 -5 -5 -11 5 -6 10 -15 14 -22 10 -7 -4 -5 2 3 12 9 11 10
16 3 11 -7 -4 -13 -2 -13 3 0 6 -7 11 -16 11 -9 0 -12 5 -8 12 5 8 2 9 -11 4
-15 -5 -16 -4 -5 9 9 11 9 15 1 15 -7 0 -9 5 -5 13 6 8 3 8 -9 -1 -14 -12 -17
-11 -22 10 -3 13 -15 30 -27 37 -16 10 -19 10 -13 -1 6 -13 -12 8 -42 47 -10
14 -17 16 -20 8 -3 -10 -10 -10 -25 -2 -15 8 -19 8 -14 0 5 -7 1 -9 -8 -5 -9
4 -16 18 -16 33 0 20 2 23 10 11 8 -13 10 -13 10 2 0 9 11 25 25 36 13 11 21
23 17 27 -4 5 1 5 11 2 9 -4 17 -2 17 4 0 6 5 7 10 4 6 -3 10 1 10 10 0 10 -5
13 -12 9 -8 -5 -8 -1 2 12 22 29 24 30 17 12 -4 -12 -2 -15 8 -11 8 3 12 9 9
14 -5 9 10 13 30 10 5 -1 4 4 -2 12 -9 11 -7 16 12 27 24 12 41 56 25 65 -7 5
-3 51 7 67 3 4 0 8 -6 8 -7 0 -8 7 -3 18 10 22 10 53 -1 71 -7 10 -5 12 5 6
12 -8 12 -6 0 9 -9 11 -17 13 -21 6 -9 -15 -28 9 -25 31 2 12 -3 15 -16 12
-14 -4 -19 0 -19 13 0 16 -2 17 -10 4 -8 -12 -10 -9 -10 12 0 15 -5 30 -12 34
-7 5 -8 3 -2 -7 6 -10 2 -10 -16 2 -14 10 -24 24 -22 32 1 10 -6 17 -20 19
-15 2 -22 9 -22 20 1 10 -2 15 -7 12 -5 -3 -9 3 -9 12 0 10 -3 14 -7 11 -3 -4
-12 -2 -19 4 -8 7 -14 6 -20 -2 -5 -8 -3 -9 6 -4 9 6 11 4 6 -4 -6 -9 -13 -8
-29 6 -11 10 -17 13 -14 7 8 -13 -20 -28 -28 -15 -8 13 -55 19 -62 8 -4 -6 -1
-7 8 -2 8 5 10 4 6 0 -10 -11 -39 -16 -32 -5 3 4 -4 10 -15 13 -11 3 -18 1
-15 -3z m80 -160 c-3 -5 -1 -10 4 -10 6 0 11 6 12 13 0 9 2 9 6 -1 2 -6 10 -9
15 -6 7 4 8 2 4 -4 -4 -6 -2 -21 4 -32 9 -17 14 -19 26 -9 10 8 14 8 14 0 0
-6 5 -11 11 -11 5 0 7 6 3 13 -6 9 -5 9 8 0 8 -7 18 -10 21 -6 4 3 7 1 7 -6 0
-7 5 -9 11 -5 8 5 9 2 2 -10 -14 -25 -4 -78 13 -72 8 3 14 1 14 -4 0 -6 8 -10
18 -10 10 0 13 -3 6 -8 -6 -4 -10 -15 -8 -24 2 -14 -1 -16 -16 -8 -24 13 -35
-4 -31 -44 2 -21 -1 -26 -11 -21 -10 6 -11 5 0 -6 14 -16 16 -33 2 -24 -5 3
-10 1 -10 -5 0 -6 -4 -9 -8 -6 -4 2 -14 1 -22 -5 -10 -6 -11 -9 -2 -9 6 0 12
-5 12 -12 0 -6 -3 -9 -6 -5 -4 3 -13 -1 -21 -9 -9 -8 -22 -13 -30 -10 -10 4
-11 1 -3 -14 7 -13 7 -21 -2 -26 -7 -5 -9 -2 -4 7 4 8 -2 3 -13 -11 -12 -15
-21 -20 -21 -11 0 8 -8 20 -17 28 -11 9 -12 12 -3 7 8 -4 5 3 -7 15 -12 11
-27 21 -32 21 -5 0 -13 5 -17 12 -4 7 -3 8 4 4 8 -5 10 -2 6 8 -3 9 -9 15 -12
14 -4 0 -10 1 -14 2 -8 2 -22 6 -34 9 -3 0 -2 7 2 13 5 7 9 27 10 45 1 27 -2
31 -13 22 -10 -9 -13 -8 -13 4 0 8 -8 21 -17 28 -16 13 -17 12 -4 -3 7 -10 9
-18 3 -18 -14 0 -23 28 -11 36 8 4 8 9 0 17 -12 12 22 67 42 67 6 0 2 -7 -9
-15 -10 -8 -14 -15 -7 -15 10 0 26 16 29 30 0 3 4 14 9 24 8 18 9 18 23 0 13
-17 14 -17 9 -1 -5 14 -2 16 17 13 27 -5 42 4 41 24 -1 17 4 30 11 30 3 0 2
-4 -1 -10z m299 -596 c3 -8 2 -12 -4 -9 -6 3 -10 10 -10 16 0 14 7 11 14 -7z
m-254 -121 c0 -3 -8 -2 -17 1 -16 5 -16 5 -2 -6 17 -15 35 -53 19 -43 -14 9
-12 -8 3 -24 10 -11 9 -12 -2 -6 -10 6 -12 4 -6 -4 4 -7 15 -11 24 -8 20 5 21
3 24 -85 1 -36 5 -64 10 -61 4 2 7 -1 7 -7 0 -6 3 -9 8 -7 4 3 16 -5 27 -16
11 -11 13 -16 5 -12 -13 8 -13 7 -1 -8 12 -15 11 -17 -3 -17 -10 0 -14 -5 -11
-10 4 -6 10 -8 15 -5 4 3 6 -4 3 -15 -3 -11 -9 -18 -12 -15 -4 2 -8 -2 -8 -10
0 -8 5 -11 10 -8 6 4 8 -2 5 -13 -4 -15 0 -20 15 -21 24 -2 60 -33 38 -33 -9
0 -10 -4 -5 -12 5 -7 9 -20 8 -28 -1 -8 -2 -21 -3 -28 0 -7 -5 -11 -9 -8 -5 3
-9 -1 -9 -8 0 -8 6 -12 14 -9 11 4 11 0 3 -22 -12 -32 -13 -38 -1 -31 9 6 7
-29 -5 -58 -6 -15 -4 -17 6 -11 8 5 11 4 6 -3 -3 -6 -15 -9 -26 -7 -12 2 -20
-2 -20 -10 0 -7 -6 -15 -12 -18 -10 -3 -9 -8 2 -22 14 -17 13 -18 -4 -12 -15
6 -16 5 -8 -6 12 -14 13 -75 1 -82 -4 -3 -19 -6 -32 -7 -14 -1 -23 -6 -21 -10
3 -5 11 -5 17 -2 9 5 8 3 0 -6 -10 -11 -10 -17 0 -29 6 -8 7 -12 2 -9 -6 4
-16 -5 -23 -20 -8 -19 -19 -27 -36 -27 -13 0 -22 3 -19 7 6 10 -1 10 -32 -2
-17 -7 -24 -7 -20 0 8 13 -8 13 -21 0 -7 -7 -10 -4 -9 12 1 13 -2 28 -7 35 -6
7 -4 14 3 19 8 5 9 3 4 -6 -5 -9 -4 -11 4 -6 6 4 8 13 4 19 -4 7 -8 15 -9 20
-1 4 -2 10 -3 15 -1 4 -5 1 -10 -7 -7 -10 -12 -11 -27 -1 -18 11 -18 11 1 5
17 -5 17 -3 -4 19 -14 15 -20 26 -14 26 6 0 9 14 7 33 -1 17 -3 43 -3 56 -1
18 -4 21 -14 12 -16 -13 -27 -5 -27 21 0 13 -4 17 -12 12 -10 -6 -10 -4 0 8
10 13 10 17 0 21 -8 3 -5 6 6 6 20 1 20 1 0 16 -11 8 -14 15 -6 15 14 0 12 21
-3 32 -6 5 -5 8 4 8 11 0 11 3 0 17 -12 15 -12 16 4 10 16 -6 16 -5 0 20 -10
15 -12 24 -5 20 6 -5 12 -4 12 2 0 5 -5 13 -11 16 -7 5 -5 13 5 24 9 10 13 21
9 26 -5 4 -2 5 5 1 11 -6 10 -12 -5 -29 -15 -19 -14 -19 9 2 15 13 32 20 40
16 7 -3 4 1 -6 9 -18 15 -15 21 9 16 5 -1 1 9 -10 21 -11 12 -14 19 -7 15 8
-5 11 -1 9 13 -2 11 -6 24 -10 27 -4 4 1 13 11 21 10 9 11 11 2 7 -13 -7 -13
-6 -1 9 9 12 17 14 25 8 8 -7 12 -5 13 7 0 9 3 27 6 40 4 13 1 22 -5 22 -7 0
-4 6 7 13 14 11 15 16 5 22 -9 6 -11 4 -5 -5 6 -9 4 -11 -4 -5 -9 5 -9 11 -3
17 6 6 8 16 6 23 -3 7 0 16 7 21 7 4 10 3 6 -4 -5 -6 1 -8 14 -5 16 4 17 8 7
14 -9 6 -6 9 12 9 19 0 22 3 11 9 -13 8 -13 12 0 27 9 11 9 15 2 10 -19 -10
-16 14 3 35 14 15 44 17 44 2z m340 -415 c0 -5 4 -7 9 -4 9 6 10 -96 0 -104
-3 -3 5 -16 19 -30 16 -16 21 -18 12 -5 -11 16 -8 15 12 -4 15 -13 24 -29 20
-35 -4 -6 -7 -23 -8 -37 0 -20 4 -25 15 -21 8 3 12 1 8 -5 -4 -6 -1 -10 6 -9
6 0 14 -3 15 -9 7 -21 25 -35 41 -33 8 2 16 -4 16 -12 0 -17 -30 -50 -44 -50
-6 0 -13 -5 -17 -12 -4 -7 -3 -8 4 -4 7 4 10 2 6 -7 -3 -9 -19 -13 -45 -12
-32 2 -39 -1 -34 -13 5 -13 3 -13 -12 -1 -15 12 -16 12 -10 -3 3 -10 2 -18 -4
-18 -6 0 -7 -4 -4 -10 4 -6 -1 -7 -11 -3 -11 4 -15 3 -11 -4 5 -8 -4 -10 -25
-6 -18 3 -35 9 -36 14 -2 5 -9 6 -15 2 -7 -4 -6 1 2 10 11 14 11 17 0 18 -12
0 -12 1 0 6 9 4 10 7 2 13 -7 3 -9 14 -5 23 3 9 10 14 15 11 5 -3 9 0 9 7 0 8
4 8 15 -1 13 -11 14 -10 9 5 -4 10 -1 20 6 25 16 10 21 48 7 57 -6 3 -7 1 -3
-5 3 -6 2 -13 -3 -16 -5 -3 -7 9 -4 27 8 69 8 82 -1 95 -5 8 -4 12 5 12 11 0
11 2 -1 10 -8 5 -10 10 -5 10 10 0 11 82 1 98 -3 5 1 15 9 22 8 7 12 16 9 21
-3 5 2 6 10 3 9 -3 16 -10 16 -16z m-698 -13 c3 -16 1 -22 -6 -18 -6 3 -6 1 1
-7 9 -9 9 -19 2 -33 -7 -11 -7 -17 -1 -13 9 5 8 -20 -2 -116 -1 -16 2 -28 8
-28 5 0 2 -6 -8 -13 -16 -12 -16 -14 -2 -26 9 -7 13 -18 9 -24 -16 -26 -8 -53
15 -55 35 -3 37 -6 36 -49 -2 -53 -2 -53 -20 -46 -9 3 -20 0 -25 -8 -5 -8 -9
-9 -9 -2 0 6 -9 9 -22 5 -16 -4 -19 -2 -13 8 6 10 4 12 -11 6 -15 -6 -16 -5
-7 5 14 14 0 39 -20 39 -6 0 -2 -7 9 -16 18 -14 17 -14 -6 -2 -31 15 -43 16
-52 4 -9 -14 -19 -3 -21 22 0 11 -5 18 -9 16 -4 -3 -8 0 -8 5 0 6 -9 11 -20
11 -11 0 -20 3 -21 8 0 4 -2 15 -4 24 -2 9 4 23 13 30 15 12 16 11 3 -4 -16
-22 1 -24 19 -3 6 8 8 20 4 27 -6 9 -3 9 10 -1 9 -8 16 -10 15 -5 -1 5 -1 15
0 23 1 11 4 11 18 0 9 -8 14 -9 10 -3 -4 7 0 17 8 24 11 9 12 17 4 32 -7 13
-7 23 0 32 6 7 9 16 6 19 -3 4 -2 5 2 2 7 -6 39 36 35 48 -1 4 2 7 6 7 4 0 8
9 8 20 0 11 -3 20 -7 20 -9 0 -6 21 5 39 7 10 6 12 -4 6 -9 -5 -11 -4 -6 3 4
7 18 12 30 12 17 0 25 -7 28 -25z m913 -85 c3 -5 1 -10 -4 -10 -6 0 -11 5 -11
10 0 6 2 10 4 10 3 0 8 -4 11 -10z m-1434 -157 c13 -16 12 -17 -3 -4 -10 7
-18 15 -18 17 0 8 8 3 21 -13z m-148 -198 c17 -1 27 4 27 14 0 11 4 10 15 -5
11 -14 14 -15 15 -4 0 13 1 13 10 0 7 -11 10 -11 10 -2 0 9 5 10 17 3 12 -7
21 -5 30 7 11 14 13 14 11 2 -2 -8 2 -14 9 -13 7 2 10 -4 6 -13 -4 -10 2 -17
17 -21 17 -4 19 -8 8 -15 -9 -7 -7 -8 10 -5 12 3 20 2 18 -2 -3 -3 4 -18 15
-31 10 -14 19 -19 19 -12 0 7 5 10 10 7 9 -6 14 8 11 28 0 4 6 7 15 7 8 0 13
4 10 9 -8 12 37 8 47 -4 4 -6 11 -4 17 5 7 11 10 11 10 2 0 -9 6 -10 18 -4 23
11 53 9 77 -5 11 -7 17 -13 13 -13 -4 0 0 -9 9 -20 13 -14 19 -16 25 -7 5 8 8
6 9 -8 l0 -20 9 20 c5 11 9 14 9 7 1 -10 6 -10 24 -1 20 11 21 11 8 -4 -9 -11
-10 -17 -2 -17 6 0 11 -10 11 -21 0 -18 2 -19 15 -9 12 10 19 10 27 2 8 -8 15
-8 24 -1 8 7 14 6 20 -2 5 -8 3 -9 -6 -4 -9 6 -11 4 -6 -4 5 -7 14 -10 20 -8
15 6 16 -35 1 -45 -6 -5 -5 -8 3 -8 6 0 12 -5 12 -12 0 -6 -3 -8 -7 -5 -3 4
-12 -1 -19 -11 -10 -13 -13 -14 -14 -3 0 11 -4 9 -15 -5 -8 -10 -15 -14 -14
-9 3 23 -2 27 -18 14 -11 -10 -14 -10 -9 -1 5 8 1 12 -11 12 -15 0 -16 2 -3
10 13 8 12 10 -3 10 -10 0 -16 4 -13 9 9 13 -15 19 -40 10 -11 -4 -27 -4 -34
1 -7 4 -23 5 -34 0 -12 -4 -31 -4 -44 1 -15 6 -21 5 -17 -1 3 -6 -1 -10 -10
-10 -9 0 -14 4 -11 8 2 4 -4 8 -15 8 -10 0 -19 -4 -19 -8 0 -5 -8 -4 -19 1
-10 6 -20 8 -22 6 -11 -10 -57 -12 -70 -3 -11 7 -9 8 6 4 16 -5 14 -2 -7 17
-15 13 -25 26 -23 29 3 2 -2 5 -10 5 -8 0 -15 -4 -15 -9 0 -5 -6 -6 -12 -1
-20 12 -41 13 -55 1 -9 -7 -13 -7 -13 2 0 9 -4 9 -17 -1 -11 -10 -14 -10 -9
-1 4 7 2 12 -6 12 -9 0 -9 3 2 10 13 8 13 10 -2 10 -9 0 -22 8 -27 18 -9 15
-12 15 -21 2 -9 -13 -10 -13 -10 0 0 11 -2 12 -8 3 -5 -8 -13 -9 -22 -3 -8 5
-11 12 -7 16 3 4 -3 15 -15 26 -17 14 -23 16 -30 6 -5 -9 -8 -6 -9 10 -1 12
-2 27 -3 34 -1 6 6 13 14 15 13 4 13 3 0 -6 -9 -7 -10 -11 -3 -11 6 0 15 5 19
11 4 8 9 7 15 -2 7 -11 9 -9 10 6 0 15 2 16 7 5 4 -8 19 -15 35 -15z m1977 5
c0 13 1 13 10 0 8 -12 10 -12 10 -1 0 11 3 11 15 1 12 -10 15 -10 15 1 1 9 6
7 17 -6 13 -16 15 -17 10 -2 -7 19 8 24 19 6 4 -8 9 -7 16 2 7 10 8 9 4 -5 -4
-10 -1 -25 6 -34 12 -14 10 -14 -12 -2 -23 12 -24 12 -11 -4 12 -14 12 -16 -1
-11 -8 3 -23 -4 -34 -16 -10 -13 -13 -19 -5 -14 9 5 12 4 8 -2 -8 -13 -77 -22
-77 -11 0 5 -6 3 -14 -4 -8 -7 -14 -15 -14 -18 1 -21 -4 -30 -12 -25 -5 3 -10
0 -10 -7 0 -9 -3 -9 -10 2 -9 13 -10 13 -10 0 0 -12 -2 -12 -9 -1 -6 9 -10 10
-16 2 -5 -9 -10 -9 -21 0 -11 9 -19 8 -35 -7 -19 -17 -20 -17 -13 2 4 10 5 17
3 14 -33 -39 -42 -52 -32 -47 6 4 15 2 19 -4 4 -7 3 -9 -2 -6 -6 3 -16 2 -24
-3 -8 -5 -22 -5 -32 1 -12 6 -18 6 -18 -1 0 -15 -30 -12 -31 3 0 9 -2 9 -6 -1
-4 -10 -8 -10 -19 -1 -8 6 -14 7 -14 2 0 -6 -12 -8 -27 -6 -61 8 -102 9 -97 1
3 -4 0 -8 -5 -8 -6 0 -11 5 -11 10 0 6 -6 5 -14 -2 -8 -7 -12 -17 -9 -21 3 -4
-1 -14 -7 -23 -9 -10 -16 -11 -25 -4 -9 8 -15 8 -20 0 -9 -14 -28 -13 -19 3 6
10 4 10 -7 0 -7 -7 -17 -13 -22 -13 -4 0 -5 6 -1 13 5 8 2 8 -9 -2 -14 -11
-17 -11 -17 0 0 11 -2 11 -9 0 -8 -12 -11 -8 -16 15 -4 16 -8 35 -11 42 -2 6
4 12 14 13 10 0 12 3 5 6 -10 3 -10 8 1 19 17 16 30 19 21 4 -8 -13 1 -13 27
1 11 6 18 7 15 2 -4 -5 0 -10 8 -10 9 0 14 7 13 16 -2 9 3 15 10 13 6 -1 11 1
11 5 -1 5 -1 15 0 23 1 11 4 11 13 2 16 -16 31 -15 22 1 -5 8 -2 8 9 -2 12 -9
17 -10 17 -2 0 7 5 9 12 5 8 -5 9 -2 5 10 -4 10 -3 15 3 11 5 -3 14 4 21 16 9
17 13 19 20 8 8 -12 11 -12 19 1 9 13 10 13 10 0 0 -12 2 -12 9 -1 6 9 11 10
15 2 5 -8 13 -8 27 -1 14 8 19 7 19 -2 0 -9 3 -9 10 2 8 12 10 12 10 1 0 -11
3 -11 17 0 14 12 16 12 8 0 -6 -11 -4 -13 9 -8 11 4 15 3 11 -4 -4 -6 1 -17
11 -25 11 -9 12 -12 4 -8 -9 4 -12 3 -7 -2 17 -18 32 -10 49 26 10 19 18 29
18 23 0 -7 5 -13 11 -13 6 0 8 7 5 16 -3 8 -2 13 3 10 5 -3 15 2 22 11 12 14
12 16 -1 8 -10 -5 -12 -5 -5 2 12 12 78 26 71 15 -2 -4 4 -8 15 -8 10 0 19 7
19 15 0 11 4 10 15 -5 11 -14 14 -15 15 -4z m-896 -35 c-4 -8 -11 -15 -16 -15
-6 0 -5 6 2 15 7 8 14 15 16 15 2 0 1 -7 -2 -15z"/>
<path d="M905 930 c-3 -5 -1 -10 4 -10 6 0 11 5 11 10 0 6 -2 10 -4 10 -3 0
-8 -4 -11 -10z"/>
<path d="M1633 1975 c0 -8 4 -12 9 -9 5 3 6 10 3 15 -9 13 -12 11 -12 -6z"/>
<path d="M1070 1796 c0 -2 8 -10 18 -17 15 -13 16 -12 3 4 -13 16 -21 21 -21
13z"/>
</g>
</svg>
